<svg xmlns="http://www.w3.org/2000/svg" width="300" height="87" viewBox="0 0 300 87" role="img" aria-labelledby="title desc">
  <title id="title">Il Ponte - Dott. Denis Ortolani</title>
  <desc id="desc">Logo professionale per studio dentistico con simbolo ispirato a un ponte dentale.</desc>
  <defs>
    <linearGradient id="markGradient" x1="16" y1="13" x2="72" y2="77" gradientUnits="userSpaceOnUse">
      <stop stop-color="#28A4D6"/>
      <stop offset="1" stop-color="#0E384C"/>
    </linearGradient>
  </defs>
  <rect width="300" height="87" fill="none"/>
  <g transform="translate(8 7)">
    <circle cx="37" cy="37" r="36" fill="#E8F5FB"/>
    <path d="M16 45c7-14 15-21 21-21 5 0 8 4 11 10 2-5 5-10 12-10 8 0 15 9 19 21" fill="none" stroke="url(#markGradient)" stroke-width="7" stroke-linecap="round"/>
    <path d="M21 47h50" stroke="#0E384C" stroke-width="5" stroke-linecap="round"/>
    <path d="M31 47v14M46 47v17M61 47v14" stroke="#1E84B5" stroke-width="5" stroke-linecap="round"/>
    <path d="M28 31c5-8 12-13 20-13 8 0 15 5 20 13" fill="none" stroke="#FFFFFF" stroke-width="4" stroke-linecap="round" opacity=".9"/>
  </g>
  <g fill="#0E384C">
    <text x="91" y="40" font-family="Inter, ui-sans-serif, system-ui, -apple-system, BlinkMacSystemFont, 'Segoe UI', sans-serif" font-size="30" font-weight="850" letter-spacing="0">Il Ponte</text>
    <text x="93" y="63" font-family="Inter, ui-sans-serif, system-ui, -apple-system, BlinkMacSystemFont, 'Segoe UI', sans-serif" font-size="14" font-weight="760" letter-spacing="1.4">DOTT. DENIS ORTOLANI</text>
  </g>
</svg>
